<?xml version="1.0" encoding="utf-8"?>
<!-- Generator: Adobe Illustrator 16.0.0, SVG Export Plug-In . SVG Version: 6.00 Build 0)  -->
<!DOCTYPE svg PUBLIC "-//W3C//DTD SVG 1.1//EN" "http://www.w3.org/Graphics/SVG/1.1/DTD/svg11.dtd">
<svg version="1.1" id="Layer_1" xmlns="http://www.w3.org/2000/svg" xmlns:xlink="http://www.w3.org/1999/xlink" x="0px" y="0px"
	 width="96px" height="120px" viewBox="0 0 96 120" enable-background="new 0 0 96 120" xml:space="preserve">
<g>
	<path fill="#363636" d="M26.479,63.981c0.002-2.613,0.004-4.528,0.005-4.53c0,0-0.027-6.184-8.298-6.184l-0.013,10.714H8.967l0,0
		c0.185-0.885,11.788-24.544,11.788-24.544c-7.965-2.87-10.167,2.534-10.167,2.534S3.389,56.566,0.965,61.419
		c-2.962,5.931,1.698,10.874,6.234,10.874c0,0,8.785-0.009,10.975-0.008v7.147c1.414,0.223,2.787,0.332,4.12,0.332
		c1.375,0,2.768-0.109,4.18-0.332c0,0,0.001-6.106,0.001-7.141c0.031,0,0.049,0.001,0.049,0.001s6.183-0.027,6.183-8.299
		L26.479,63.981z"/>
	<path fill="#363636" d="M65.163,38.761c1.403-0.22,2.787-0.327,4.152-0.327c1.325,0,2.689,0.107,4.095,0.327v29.362
		c0,1.133,0.067,2.046,0.205,2.737c0.136,0.695,0.351,1.233,0.643,1.617c0.293,0.38,0.671,0.646,1.14,0.791
		c0.47,0.146,1.055,0.22,1.757,0.22c0.311,0,0.651-0.018,1.023-0.054c0.37-0.038,0.73-0.092,1.081-0.166
		c0.43,1.496,0.644,2.957,0.644,4.38v0.794c0,0.238-0.039,0.502-0.116,0.794c-0.625,0.182-1.375,0.311-2.253,0.383
		c-0.878,0.073-1.687,0.11-2.427,0.11c-3.004,0-5.409-0.775-7.224-2.327c-1.813-1.551-2.72-4.079-2.72-7.581V38.761z"/>
	<path fill="#363636" d="M81.227,38.761c1.403-0.22,2.787-0.327,4.152-0.327c1.325,0,2.689,0.107,4.095,0.327v29.362
		c0,1.133,0.067,2.046,0.205,2.737c0.136,0.695,0.35,1.233,0.643,1.617c0.293,0.38,0.671,0.646,1.14,0.791
		c0.47,0.146,1.055,0.22,1.757,0.22c0.312,0,0.651-0.018,1.023-0.054c0.37-0.038,0.73-0.092,1.081-0.166
		c0.429,1.496,0.644,2.957,0.644,4.38v0.794c0,0.238-0.039,0.502-0.117,0.794c-0.624,0.182-1.374,0.311-2.252,0.383
		c-0.878,0.073-1.687,0.11-2.427,0.11c-3.004,0-5.409-0.775-7.224-2.327c-1.813-1.551-2.72-4.079-2.72-7.581V38.761z"/>
	<path fill="#4D9E34" d="M92.511,102.433l-7.173-7.172c-9.021,9.018-21.483,14.596-35.247,14.596
		c-13.765,0-26.226-5.578-35.247-14.596l-7.173,7.172C18.528,113.287,33.525,120,50.091,120S81.653,113.287,92.511,102.433"/>
	<path fill="#4D9E34" d="M50.091,0C33.525,0,18.528,6.713,7.671,17.567l7.173,7.172c9.021-9.019,21.482-14.596,35.247-14.596
		s26.226,5.577,35.247,14.596l7.173-7.172C81.653,6.713,66.656,0,50.091,0"/>
	<path fill="#363636" d="M52.52,58.835c0-0.952-0.159-1.727-0.477-2.321c-0.316-0.594-0.753-1.058-1.309-1.396
		c-0.555-0.337-1.238-0.565-2.05-0.683c-0.813-0.119-1.719-0.257-2.706-0.178c-8.401,0.658-8.504-3.668-8.504-4.937
		c1.745-0.597,3.488-1.031,5.233-1.31c1.744-0.276,3.367-0.416,4.875-0.416c4.124,0,7.345,0.991,9.662,2.973
		c2.319,1.984,3.479,5.154,3.479,9.515v17.839c-1.388,0.438-3.072,0.853-5.054,1.248c-1.983,0.396-4.223,0.596-6.719,0.596
		c-2.023,0-3.877-0.18-5.561-0.535c-1.686-0.357-3.132-0.951-4.341-1.786c-1.21-0.83-2.141-1.901-2.796-3.21
		c-0.652-1.309-0.979-2.914-0.979-4.816c0-1.901,0.406-3.497,1.219-4.787c0.812-1.286,1.863-2.318,3.151-3.091
		c1.287-0.773,2.726-1.327,4.311-1.665c1.586-0.337,3.172-0.506,4.758-0.506c1.15,0,2.416,0.06,3.806,0.179V58.835z M52.52,64.958
		c-0.477-0.08-0.991-0.148-1.546-0.209c-0.557-0.06-1.052-0.088-1.486-0.088c-1.944,0-3.479,0.347-4.609,1.039
		c-1.129,0.695-1.694,1.815-1.694,3.36c0,1.032,0.218,1.823,0.654,2.378c0.436,0.556,0.96,0.963,1.576,1.22
		c0.613,0.258,1.269,0.416,1.962,0.474c0.693,0.06,1.298,0.092,1.812,0.092c0.596,0,1.19-0.052,1.785-0.149s1.108-0.188,1.546-0.269
		V64.958z"/>
</g>
</svg>
