<svg xmlns="http://www.w3.org/2000/svg" viewBox="137.427 4807.563 85.731 107.239">
  <defs>
    <style>
      .cls-1 {
        fill: #fff;
      }
    </style>
  </defs>
  <g id="Group_500" data-name="Group 500" transform="translate(12.427 4693.545)">
    <path id="Path_9" data-name="Path 9" class="cls-1" d="M143.221,352.305v-4.049c0-.008-.025-5.525-7.416-5.525l0,9.574h-8.231c.165-.786,10.534-21.934,10.534-21.934-7.118-2.565-9.086,2.264-9.086,2.264s-6.433,13.043-8.6,17.38A6.516,6.516,0,0,0,126,359.732s7.85-.008,9.807-.007v6.387a23.6,23.6,0,0,0,3.682.3,23.9,23.9,0,0,0,3.727-.3s0-5.457,0-6.381h.043s5.525-.025,5.525-7.416Z" transform="translate(5.409 -181.109)"/>
    <path id="Path_10" data-name="Path 10" class="cls-1" d="M638,328.6a23.921,23.921,0,0,1,3.711-.293,23.632,23.632,0,0,1,3.658.293v26.24a13.044,13.044,0,0,0,.184,2.446,3.472,3.472,0,0,0,.574,1.446,2,2,0,0,0,1.019.707,5.362,5.362,0,0,0,1.572.2c.279,0,.583-.016.915-.048a9.019,9.019,0,0,0,.966-.147,14.171,14.171,0,0,1,.575,3.914v.708a2.785,2.785,0,0,1-.1.711,10.336,10.336,0,0,1-2.013.337q-1.177.1-2.169.1a9.589,9.589,0,0,1-6.456-2.079Q638,361.053,638,356.361Z" transform="translate(-454.805 -179.946)"/>
    <path id="Path_11" data-name="Path 11" class="cls-1" d="M765.93,328.6a23.934,23.934,0,0,1,3.713-.293,23.648,23.648,0,0,1,3.658.293v26.24a13.022,13.022,0,0,0,.184,2.446,3.477,3.477,0,0,0,.574,1.446,2,2,0,0,0,1.019.707,5.362,5.362,0,0,0,1.572.2c.278,0,.583-.016.915-.048a9.016,9.016,0,0,0,.966-.147,14.161,14.161,0,0,1,.575,3.914v.708a2.781,2.781,0,0,1-.1.711,10.333,10.333,0,0,1-2.013.337q-1.177.1-2.169.1a9.589,9.589,0,0,1-6.456-2.079q-2.429-2.079-2.43-6.775Z" transform="translate(-568.374 -179.946)"/>
    <path id="Path_12" data-name="Path 12" class="cls-1" d="M256.178,787.11l-6.41-6.41a44.555,44.555,0,0,1-63,0l-6.41,6.41A53.619,53.619,0,0,0,256.178,787.11Z" transform="translate(-48.538 -581.552)"/>
    <path id="Path_13" data-name="Path 13" class="cls-1" d="M218.269,22.35a53.452,53.452,0,0,0-37.909,15.7l6.41,6.41a44.555,44.555,0,0,1,63,0l6.41-6.41a53.452,53.452,0,0,0-37.909-15.7Z" transform="translate(-48.538 91.669)"/>
    <path id="Path_14" data-name="Path 14" class="cls-1" d="M415.54,411.285a4.4,4.4,0,0,0-.425-2.073,3.181,3.181,0,0,0-1.17-1.248,4.825,4.825,0,0,0-1.832-.611,10.789,10.789,0,0,0-2.418-.159c-7.508.589-7.6-3.278-7.6-4.411a28.769,28.769,0,0,1,9.033-1.542q5.527,0,8.635,2.656t3.11,8.5v15.94a43.9,43.9,0,0,1-4.516,1.116,30.987,30.987,0,0,1-6,.532,24.069,24.069,0,0,1-4.97-.478,10.661,10.661,0,0,1-3.88-1.6,7.493,7.493,0,0,1-2.5-2.868,9.594,9.594,0,0,1-.876-4.305,7.862,7.862,0,0,1,1.089-4.278,8.412,8.412,0,0,1,2.817-2.763,12.487,12.487,0,0,1,3.85-1.485,20.465,20.465,0,0,1,4.251-.449q1.541,0,3.4.161Zm0,5.472c-.425-.072-.887-.133-1.382-.186a12.506,12.506,0,0,0-1.328-.079,7.844,7.844,0,0,0-4.119.928,3.257,3.257,0,0,0-1.514,3,3.367,3.367,0,0,0,.585,2.125,3.468,3.468,0,0,0,1.409,1.09,5.7,5.7,0,0,0,1.753.423q.931.081,1.62.082a9.848,9.848,0,0,0,1.6-.132c.532-.088.99-.168,1.382-.24Z" transform="translate(-243.638 -244.689)"/>
  </g>
</svg>
